<svg width="407" height="129" viewBox="0 0 407 129" fill="none" xmlns="http://www.w3.org/2000/svg">
<mask id="path-1-inside-1_199_110" fill="white">
<path fill-rule="evenodd" clip-rule="evenodd" d="M406.866 49.2936H407V124C407 126.761 404.761 129 402 129H4.99999C2.23857 129 0 126.761 0 124V54.2936C0 51.5321 2.23858 49.2936 5 49.2936H227.285L314.025 0.759128L314.218 0.867256C315.02 0.319994 315.989 0 317.033 0H402C404.761 0 407 2.23858 407 5V48.1376C407 48.5355 406.954 48.9225 406.866 49.2936Z"/>
</mask>
<path d="M406.866 49.2936L405.893 49.0632L405.601 50.2936H406.866V49.2936ZM407 49.2936H408V48.2936H407V49.2936ZM227.285 49.2936V50.2936H227.546L227.773 50.1662L227.285 49.2936ZM314.025 0.759128L314.513 -0.113542L314.025 -0.386776L313.537 -0.113549L314.025 0.759128ZM314.218 0.867256L313.73 1.73993L314.27 2.04236L314.782 1.69322L314.218 0.867256ZM406.866 50.2936H407V48.2936H406.866V50.2936ZM406 49.2936V124H408V49.2936H406ZM406 124C406 126.209 404.209 128 402 128V130C405.314 130 408 127.314 408 124H406ZM402 128H4.99999V130H402V128ZM4.99999 128C2.79085 128 1 126.209 1 124H-1C-1 127.314 1.68628 130 4.99999 130V128ZM1 124V54.2936H-1V124H1ZM1 54.2936C1 52.0844 2.79086 50.2936 5 50.2936V48.2936C1.68629 48.2936 -1 50.9799 -1 54.2936H1ZM5 50.2936H227.285V48.2936H5V50.2936ZM227.773 50.1662L314.513 1.63181L313.537 -0.113549L226.797 48.4209L227.773 50.1662ZM313.537 1.6318L313.73 1.73993L314.707 -0.00541391L314.513 -0.113542L313.537 1.6318ZM314.782 1.69322C315.423 1.25574 316.197 1 317.033 1V-1C315.782 -1 314.617 -0.615749 313.654 0.0412906L314.782 1.69322ZM317.033 1H402V-1H317.033V1ZM402 1C404.209 1 406 2.79086 406 5H408C408 1.68629 405.314 -1 402 -1V1ZM406 5V48.1376H408V5H406ZM406 48.1376C406 48.4574 405.963 48.7672 405.893 49.0632L407.839 49.5239C407.944 49.0779 408 48.6136 408 48.1376H406Z" fill="white" mask="url(#path-1-inside-1_199_110)"/>
<path fill-rule="evenodd" clip-rule="evenodd" d="M362.695 88.6915C362.478 89.9548 361.54 90.8029 361.54 90.8029C360.583 91.6511 359.32 91.6511 359.32 91.6511H337.624L340.656 69.9415C340.819 68.6963 341.793 67.8482 341.793 67.8482C342.768 67 344.032 67 344.032 67H365.727L362.695 88.6915ZM382.622 67L378.128 82.5919H384.535L386.521 68.6061L385.095 67H394.968L392.766 82.5919H396.051L395.492 86.7064H392.206L391.503 91.6511H383.272L383.976 86.7064H369.193L369.771 82.5919L374.139 68.0467L373.182 67H382.622ZM251.075 91.6511L262.681 67.1263H254.36L246.039 84.1439L242.754 67.1263H234L234.83 68.3354L239.415 91.6511H251.075ZM266.454 88.7457C266.454 88.7457 266.273 89.3412 266.399 89.8826C266.399 89.8826 266.526 90.424 266.905 90.821C266.905 90.821 267.266 91.218 267.789 91.4345C267.789 91.4345 268.313 91.6511 268.908 91.6511H292.229L295.117 70.0318C295.117 70.0318 295.297 69.3821 295.171 68.8588C295.171 68.8588 295.044 68.3354 294.665 67.9564C294.665 67.9564 294.304 67.5594 293.781 67.3429C293.781 67.3429 293.257 67.1263 292.662 67.1263H269.341L266.454 88.7457ZM323.635 87.4824L323.238 91.6511H301.615C300.369 91.6511 299.737 90.821 299.737 90.821C299.106 89.9908 299.106 88.7457 299.106 88.7457L301.615 68.7685L300.369 67.1263H310.333L307.427 87.4824H323.635ZM348.761 71.0784L346.414 87.5366H354.609L356.937 71.0784H348.761ZM286.814 71.295L284.341 87.4824H274.756L276.85 71.295H286.814ZM326.668 91.597H333.238L333.942 86.6703H327.354L326.668 91.597Z" fill="white"/>
<mask id="mask0_199_110" style="mask-type:luminance" maskUnits="userSpaceOnUse" x="343" y="23" width="24" height="24">
<path d="M366.995 23H343.188V46.8026H366.995V23Z" fill="white"/>
</mask>
<g mask="url(#mask0_199_110)">
<path fill-rule="evenodd" clip-rule="evenodd" d="M345.172 34.9092C345.172 40.36 349.648 44.8111 355.1 44.8111C360.552 44.8111 365.004 40.36 365.004 34.9092C365.004 29.4346 360.552 24.9836 355.1 24.9836C349.648 24.9836 345.172 29.4584 345.172 34.9092ZM357.671 27.3638C358.266 28.5539 358.766 29.6489 359.052 30.9342H361.932C361.052 29.2442 359.456 28.0541 357.671 27.3638ZM353.207 30.9421H356.969C356.588 29.4426 355.873 28.1572 355.088 26.9671C354.302 28.1572 353.612 29.5378 353.207 30.9421ZM350.822 36.8928C350.822 36.2025 350.727 35.5836 350.727 34.8934C350.727 34.2031 350.727 33.608 350.822 32.9177H347.465C347.251 33.5128 347.156 34.2031 347.156 34.8934C347.156 35.5836 347.251 36.2977 347.465 36.8928H350.822ZM352.509 42.4388C351.913 41.2487 351.414 40.1537 351.128 38.8684H348.247C349.152 40.5584 350.723 41.7485 352.509 42.4388ZM352.509 27.3638C350.723 28.0541 349.247 29.2442 348.247 30.9342H351.128C351.414 29.6489 351.913 28.5539 352.509 27.3638ZM356.969 38.8684H353.207C353.612 40.3442 354.302 41.6533 355.088 42.8434C355.897 41.6533 356.588 40.249 356.969 38.8684ZM357.683 34.8934C357.683 34.2031 357.564 33.608 357.469 32.9177H352.802C352.707 33.608 352.612 34.2031 352.612 34.8934C352.612 35.5836 352.707 36.1787 352.802 36.8928H357.373C357.469 36.2025 357.683 35.5836 357.683 34.8934ZM361.932 38.8684H359.052C358.766 40.1537 358.266 41.3439 357.671 42.4388C359.456 41.7485 361.052 40.5584 361.932 38.8684ZM362.837 36.8928C363.028 36.2977 363.123 35.5836 363.123 34.8934C363.123 34.2031 363.028 33.5128 362.837 32.9177H359.456C359.456 33.608 359.552 34.2031 359.552 34.8934C359.552 35.5836 359.552 36.1787 359.456 36.8928H362.837Z" fill="white"/>
</g>
<path fill-rule="evenodd" clip-rule="evenodd" d="M234.471 112H234V103H234.471V112ZM234.942 103H235.413V112H234.942V103ZM235.884 112H237.296V103H235.884V112ZM238.709 112H239.18V103H238.709V112ZM241.063 112H239.651V103H241.063V112ZM243.496 112V103H244.909V112H243.496ZM245.85 112V103H245.38V112H245.85ZM247.734 103V112H246.321V103H247.734ZM249.147 112H249.617V103H249.147V112ZM250.088 103V112H250.559V103H250.088ZM252.992 103H254.405V112H252.992V103ZM254.876 103V112H255.346V103H254.876ZM255.817 112H256.288V103H255.817V112ZM257.701 103H258.172V112H257.701V103ZM258.643 112H260.055V103H258.643V112ZM262.488 103V112H262.959V103H262.488ZM263.901 112H263.43V103H263.901V112ZM265.784 103V112H264.372V103H265.784ZM267.197 103V112H267.668V103H267.197ZM269.551 112H268.139V103H269.551V112ZM273.397 103V112H271.984V103H273.397ZM274.339 103V112H273.868V103H274.339ZM274.809 112V103H275.28V112H274.809ZM277.164 112V103H275.751V112H277.164ZM279.047 103H278.577V112H279.047V103ZM282.893 103H281.48V112H282.893V103ZM283.835 112V103H283.364V112H283.835ZM284.776 112H284.306V103H284.776V112ZM286.189 103H286.66V112H286.189V103ZM287.131 112H288.543V103H287.131V112ZM290.976 103V112H291.447V103H290.976ZM291.918 112V103H293.331V112H291.918ZM294.272 112H293.802V103H294.272V112ZM296.156 103H295.685V112H296.156V103ZM296.627 112V103H298.039V112H296.627ZM300.472 112H300.943V103H300.472V112ZM302.827 103H301.414V112H302.827V103ZM303.769 112H303.298V103H303.769V112ZM305.181 112V103H305.652V112H305.181ZM306.123 112H307.536V103H306.123V112ZM309.968 103V112H310.439V103H309.968ZM310.91 112V103H312.323V112H310.91ZM313.265 112V103H312.794V112H313.265ZM316.09 103V112H314.677V103H316.09ZM317.032 112H316.561V103H317.032V112ZM319.464 103V112H319.935V103H319.464ZM320.877 112V103H320.406V112H320.877ZM322.761 112H321.348V103H322.761V112ZM324.644 103V112H323.231V103H324.644ZM326.057 103V112H326.528V103H326.057ZM328.961 103H330.373V112H328.961V103ZM331.786 112V103H332.257V112H331.786ZM333.198 103H332.728V112H333.198V103ZM335.082 103V112H333.669V103H335.082ZM335.553 103V112H336.024V103H335.553ZM338.457 103H339.869V112H338.457V103ZM340.811 103V112H340.34V103H340.811ZM341.282 112H342.694V103H341.282V112ZM343.165 103V112H343.636V103H343.165ZM345.52 112H345.049V103H345.52V112ZM347.953 112H348.423V103H347.953V112ZM348.894 103V112H349.365V103H348.894ZM351.249 103V112H349.836V103H351.249ZM352.191 103V112H351.72V103H352.191ZM353.603 112H355.016V103H353.603V112ZM357.92 103H357.449V112H357.92V103ZM359.803 103H358.39V112H359.803V103ZM360.745 112H360.274V103H360.745V112ZM361.216 103V112H361.687V103H361.216ZM363.099 112V103H364.512V112H363.099ZM366.945 112H367.416V103H366.945V112ZM367.886 103V112H369.299V103H367.886ZM369.77 103H370.241V112H369.77V103ZM373.066 103V112H371.654V103H373.066ZM373.537 103H374.008V112H373.537V103ZM376.441 112H376.912V103H376.441V112ZM377.383 112H377.853V103H377.383V112ZM378.324 103H379.737V112H378.324V103ZM380.208 103H380.679V112H380.208V103ZM382.091 112H383.504V103H382.091V112ZM385.937 103H387.349V112H385.937V103ZM388.291 112V103H387.82V112H388.291ZM390.175 103V112H388.762V103H390.175ZM391.587 103V112H392.058V103H391.587ZM392.529 103V112H393V103H392.529Z" fill="white"/>
<path fill-rule="evenodd" clip-rule="evenodd" d="M13 67H14.2996V92.5534H13V67ZM16.8988 92.5534V67H15.5992V92.5534H16.8988ZM22.0971 92.5534H18.1983V67H22.0971V92.5534ZM27.2954 92.5534H25.9959V67H27.2954V92.5534ZM28.595 92.5534H32.4938V67H28.595V92.5534ZM37.6921 67V92.5534H33.7934V67H37.6921ZM38.9917 67H40.2913V92.5534H38.9917V67ZM41.5909 92.5534H45.4896V67H41.5909V92.5534ZM50.688 67H49.3884V92.5534H50.688V67ZM53.2871 92.5534H51.9876V67H53.2871V92.5534ZM54.5867 92.5534V67H58.4855V92.5534H54.5867ZM59.7851 92.5534V67H61.0846V92.5534H59.7851ZM62.3842 67V92.5534H63.6838V67H62.3842ZM67.5826 92.5534H68.8822V67H67.5826V92.5534ZM74.0805 92.5534V67H70.1817V92.5534H74.0805ZM76.6797 67V92.5534H75.3801V67H76.6797ZM77.9793 92.5534V67H79.2788V92.5534H77.9793ZM84.4772 67H80.5784V92.5534H84.4772V67ZM88.3759 67V92.5534H89.6755V67H88.3759ZM90.9751 92.5534V67H94.8739V92.5534H90.9751ZM96.1735 92.5534H100.072V67H96.1735V92.5534ZM102.671 92.5534H101.372V67H102.671V92.5534ZM105.271 92.5534H103.971V67H105.271V92.5534ZM110.469 92.5534V67H106.57V92.5534H110.469ZM115.667 92.5534V67H114.368V92.5534H115.667ZM116.967 92.5534V67H120.866V92.5534H116.967ZM122.165 92.5534V67H123.465V92.5534H122.165ZM126.064 92.5534V67H124.764V92.5534H126.064ZM129.963 67V92.5534H131.262V67H129.963ZM136.461 67H132.562V92.5534H136.461V67ZM139.06 67V92.5534H137.76V67H139.06ZM144.258 67V92.5534H140.359V67H144.258ZM145.558 67V92.5534H146.857V67H145.558ZM150.756 67V92.5534H152.056V67H150.756ZM153.355 92.5534V67H157.254V92.5534H153.355ZM159.853 92.5534V67H158.554V92.5534H159.853ZM161.153 92.5534V67H165.051V92.5534H161.153ZM167.651 92.5534H166.351V67H167.651V92.5534ZM171.549 67V92.5534H172.849V67H171.549ZM178.047 67V92.5534H174.149V67H178.047ZM179.347 92.5534V67H180.646V92.5534H179.347ZM185.845 92.5534H181.946V67H185.845V92.5534ZM187.144 92.5534H188.444V67H187.144V92.5534ZM192.343 92.5534V67H196.242V92.5534H192.343ZM198.841 92.5534V67H197.541V92.5534H198.841ZM201.44 92.5534V67H200.14V92.5534H201.44ZM202.739 92.5534V67H204.039V92.5534H202.739ZM209.237 67H205.339V92.5534H209.237V67ZM214.436 67H210.537V92.5534H214.436V67ZM218.334 67H219.634V92.5534H218.334V67Z" fill="white"/>
<path d="M13.9082 113V104.469H15.8828C16.2148 104.473 16.5273 104.508 16.8203 104.574C17.1172 104.637 17.3906 104.727 17.6406 104.844C17.9883 105.004 18.2949 105.215 18.5605 105.477C18.8301 105.734 19.0449 106.033 19.2051 106.373C19.3496 106.662 19.459 106.979 19.5332 107.322C19.6113 107.666 19.6523 108.033 19.6562 108.424V109.051C19.6562 109.426 19.6191 109.781 19.5449 110.117C19.4746 110.453 19.3711 110.762 19.2344 111.043C19.0938 111.336 18.916 111.602 18.7012 111.84C18.4863 112.078 18.2461 112.281 17.9805 112.449C17.6992 112.625 17.3809 112.76 17.0254 112.854C16.6738 112.947 16.293 112.996 15.8828 113H13.9082ZM15.0098 105.359V112.115H15.8828C16.1953 112.111 16.4785 112.072 16.7324 111.998C16.9902 111.924 17.2188 111.818 17.418 111.682C17.6289 111.541 17.8105 111.369 17.9629 111.166C18.1191 110.959 18.2422 110.729 18.332 110.475C18.4102 110.268 18.4688 110.045 18.5078 109.807C18.5469 109.564 18.5684 109.312 18.5723 109.051V108.412C18.5684 108.146 18.5449 107.893 18.502 107.65C18.4629 107.404 18.4023 107.176 18.3203 106.965C18.2148 106.691 18.0723 106.445 17.8926 106.227C17.7168 106.004 17.5 105.824 17.2422 105.688C17.0586 105.586 16.8535 105.508 16.627 105.453C16.4004 105.395 16.1523 105.363 15.8828 105.359H15.0098ZM25.9199 109.057H22.3574V112.08H26.5117V113H21.2734V104.469H26.459V105.395H22.3574V108.137H25.9199V109.057ZM32.8984 110.844C32.8984 110.582 32.8379 110.361 32.7168 110.182C32.5996 110.002 32.4473 109.85 32.2598 109.725C32.0723 109.604 31.8652 109.502 31.6387 109.42C31.416 109.338 31.2012 109.264 30.9941 109.197C30.6934 109.1 30.3867 108.982 30.0742 108.846C29.7656 108.705 29.4844 108.537 29.2305 108.342C28.9727 108.143 28.7617 107.908 28.5977 107.639C28.4375 107.365 28.3574 107.045 28.3574 106.678C28.3574 106.311 28.4375 105.982 28.5977 105.693C28.7617 105.404 28.9746 105.16 29.2363 104.961C29.498 104.762 29.7949 104.611 30.127 104.51C30.459 104.404 30.793 104.352 31.1289 104.352C31.5 104.352 31.8574 104.414 32.2012 104.539C32.5449 104.66 32.8496 104.832 33.1152 105.055C33.3809 105.277 33.5938 105.547 33.7539 105.863C33.9141 106.18 33.998 106.533 34.0059 106.924H32.8926C32.8613 106.678 32.8008 106.455 32.7109 106.256C32.6211 106.053 32.502 105.879 32.3535 105.734C32.2051 105.59 32.0273 105.479 31.8203 105.4C31.6172 105.318 31.3867 105.277 31.1289 105.277C30.9219 105.277 30.7188 105.307 30.5195 105.365C30.3242 105.424 30.1504 105.512 29.998 105.629C29.8418 105.746 29.7168 105.891 29.623 106.062C29.5332 106.234 29.4883 106.434 29.4883 106.66C29.4922 106.906 29.5547 107.115 29.6758 107.287C29.7969 107.455 29.9512 107.598 30.1387 107.715C30.3223 107.832 30.5215 107.93 30.7363 108.008C30.9551 108.086 31.1602 108.154 31.3516 108.213C31.668 108.311 31.9844 108.43 32.3008 108.57C32.6172 108.707 32.9062 108.883 33.168 109.098C33.4258 109.297 33.6328 109.541 33.7891 109.83C33.9492 110.119 34.0293 110.453 34.0293 110.832C34.0293 111.215 33.9434 111.549 33.7715 111.834C33.6035 112.119 33.3848 112.355 33.1152 112.543C32.8457 112.734 32.541 112.879 32.2012 112.977C31.8613 113.07 31.5215 113.117 31.1816 113.117C30.7754 113.117 30.375 113.049 29.9805 112.912C29.5898 112.775 29.25 112.578 28.9609 112.32C28.7031 112.098 28.498 111.838 28.3457 111.541C28.1973 111.24 28.1172 110.906 28.1055 110.539H29.2129C29.248 110.805 29.3203 111.041 29.4297 111.248C29.5391 111.451 29.6797 111.623 29.8516 111.764C30.0234 111.908 30.2207 112.018 30.4434 112.092C30.6699 112.162 30.916 112.197 31.1816 112.197C31.3926 112.197 31.5996 112.172 31.8027 112.121C32.0098 112.066 32.1934 111.982 32.3535 111.869C32.5137 111.76 32.6445 111.621 32.7461 111.453C32.8477 111.281 32.8984 111.078 32.8984 110.844ZM35.6406 104.469H40.7969V105.412H38.752V112.062H40.7969V113H35.6406V112.062H37.6387V105.412H35.6406V104.469ZM48.3672 111.881C48.2344 112.037 48.0938 112.18 47.9453 112.309C47.7969 112.434 47.6426 112.543 47.4824 112.637C47.209 112.801 46.9141 112.922 46.5977 113C46.2812 113.082 45.9492 113.121 45.6016 113.117C45.25 113.113 44.9258 113.061 44.6289 112.959C44.3359 112.854 44.0723 112.709 43.8379 112.525C43.6035 112.346 43.3984 112.133 43.2227 111.887C43.0469 111.641 42.9004 111.373 42.7832 111.084C42.6621 110.799 42.5703 110.5 42.5078 110.188C42.4492 109.871 42.418 109.553 42.4141 109.232V108.242C42.418 107.926 42.4453 107.611 42.4961 107.299C42.5508 106.982 42.6328 106.68 42.7422 106.391C42.8516 106.102 42.9883 105.834 43.1523 105.588C43.3164 105.338 43.5137 105.121 43.7441 104.938C43.9707 104.758 44.2285 104.615 44.5176 104.51C44.8066 104.404 45.1309 104.352 45.4902 104.352C45.8887 104.352 46.2559 104.414 46.5918 104.539C46.9277 104.66 47.2207 104.834 47.4707 105.061C47.7207 105.291 47.9219 105.568 48.0742 105.893C48.2266 106.213 48.3203 106.572 48.3555 106.971H47.2832C47.2402 106.725 47.1738 106.498 47.084 106.291C46.9941 106.08 46.877 105.9 46.7324 105.752C46.584 105.604 46.4082 105.488 46.2051 105.406C46.002 105.32 45.7656 105.277 45.4961 105.277C45.2383 105.277 45.0098 105.322 44.8105 105.412C44.6113 105.498 44.4375 105.615 44.2891 105.764C44.1406 105.912 44.0176 106.086 43.9199 106.285C43.8223 106.48 43.7422 106.688 43.6797 106.906C43.6172 107.125 43.5723 107.348 43.5449 107.574C43.5176 107.801 43.5039 108.02 43.5039 108.23V109.232C43.5078 109.447 43.5254 109.67 43.5566 109.9C43.5918 110.127 43.6445 110.35 43.7148 110.568C43.7852 110.787 43.875 110.994 43.9844 111.189C44.0938 111.385 44.2266 111.557 44.3828 111.705C44.5352 111.854 44.7129 111.973 44.916 112.062C45.1191 112.148 45.3496 112.193 45.6074 112.197C45.7559 112.201 45.9102 112.195 46.0703 112.18C46.2344 112.164 46.3926 112.133 46.5449 112.086C46.6973 112.039 46.8398 111.977 46.9727 111.898C47.1055 111.816 47.2168 111.711 47.3066 111.582L47.3184 109.666H45.584V108.752H48.3496L48.3672 111.881ZM55.3984 113H54.2969L50.9863 106.625L50.9688 113H49.873V104.469H50.9746L54.2852 110.832L54.3027 104.469H55.3984V113ZM61.9551 109.057H58.3926V112.08H62.5469V113H57.3086V104.469H62.4941V105.395H58.3926V108.137H61.9551V109.057ZM64.3574 113V104.469H66.332C66.6641 104.473 66.9766 104.508 67.2695 104.574C67.5664 104.637 67.8398 104.727 68.0898 104.844C68.4375 105.004 68.7441 105.215 69.0098 105.477C69.2793 105.734 69.4941 106.033 69.6543 106.373C69.7988 106.662 69.9082 106.979 69.9824 107.322C70.0605 107.666 70.1016 108.033 70.1055 108.424V109.051C70.1055 109.426 70.0684 109.781 69.9941 110.117C69.9238 110.453 69.8203 110.762 69.6836 111.043C69.543 111.336 69.3652 111.602 69.1504 111.84C68.9355 112.078 68.6953 112.281 68.4297 112.449C68.1484 112.625 67.8301 112.76 67.4746 112.854C67.123 112.947 66.7422 112.996 66.332 113H64.3574ZM65.459 105.359V112.115H66.332C66.6445 112.111 66.9277 112.072 67.1816 111.998C67.4395 111.924 67.668 111.818 67.8672 111.682C68.0781 111.541 68.2598 111.369 68.4121 111.166C68.5684 110.959 68.6914 110.729 68.7812 110.475C68.8594 110.268 68.918 110.045 68.957 109.807C68.9961 109.564 69.0176 109.312 69.0215 109.051V108.412C69.0176 108.146 68.9941 107.893 68.9512 107.65C68.9121 107.404 68.8516 107.176 68.7695 106.965C68.6641 106.691 68.5215 106.445 68.3418 106.227C68.166 106.004 67.9492 105.824 67.6914 105.688C67.5078 105.586 67.3027 105.508 67.0762 105.453C66.8496 105.395 66.6016 105.363 66.332 105.359H65.459ZM76.416 109.713H71.9336V108.822H76.416V109.713ZM78.8711 113V104.469H81.4082C81.7598 104.473 82.1035 104.52 82.4395 104.609C82.7754 104.695 83.0742 104.83 83.3359 105.014C83.5977 105.197 83.8066 105.432 83.9629 105.717C84.1191 106.002 84.1953 106.344 84.1914 106.742C84.1875 106.965 84.1504 107.168 84.0801 107.352C84.0137 107.535 83.9219 107.699 83.8047 107.844C83.6836 107.992 83.5488 108.117 83.4004 108.219C83.2559 108.32 83.0801 108.416 82.873 108.506V108.523C83.0879 108.574 83.2949 108.666 83.4941 108.799C83.6934 108.932 83.8574 109.078 83.9863 109.238C84.123 109.414 84.2285 109.611 84.3027 109.83C84.3809 110.049 84.4199 110.285 84.4199 110.539C84.4238 110.938 84.3477 111.289 84.1914 111.594C84.0352 111.898 83.8262 112.152 83.5645 112.355C83.3027 112.562 83 112.721 82.6562 112.83C82.3164 112.939 81.9648 112.996 81.6016 113H78.8711ZM79.9609 109.01V112.08H81.6309C81.8574 112.076 82.0723 112.039 82.2754 111.969C82.4785 111.895 82.6582 111.793 82.8145 111.664C82.9707 111.535 83.0938 111.377 83.1836 111.189C83.2773 111.002 83.3242 110.789 83.3242 110.551C83.3281 110.309 83.2871 110.094 83.2012 109.906C83.1191 109.719 83.0039 109.559 82.8555 109.426C82.707 109.297 82.5332 109.197 82.334 109.127C82.1348 109.057 81.9199 109.018 81.6895 109.01H79.9609ZM79.9609 108.107H81.4727C81.6758 108.104 81.875 108.072 82.0703 108.014C82.2656 107.951 82.4395 107.861 82.5918 107.744C82.7441 107.631 82.8672 107.49 82.9609 107.322C83.0547 107.154 83.1016 106.959 83.1016 106.736C83.1016 106.498 83.0547 106.295 82.9609 106.127C82.8711 105.959 82.75 105.82 82.5977 105.711C82.4414 105.605 82.2617 105.527 82.0586 105.477C81.8594 105.426 81.6543 105.398 81.4434 105.395H79.9609V108.107ZM88.6035 108.752L90.5488 104.469H91.7793L89.125 109.818L89.1074 113H88.0996L88.082 109.818L85.4277 104.469H86.6641L88.6035 108.752ZM98.0371 109.713H93.5547V108.822H98.0371V109.713ZM104.969 110.844C104.969 110.582 104.908 110.361 104.787 110.182C104.67 110.002 104.518 109.85 104.33 109.725C104.143 109.604 103.936 109.502 103.709 109.42C103.486 109.338 103.271 109.264 103.064 109.197C102.764 109.1 102.457 108.982 102.145 108.846C101.836 108.705 101.555 108.537 101.301 108.342C101.043 108.143 100.832 107.908 100.668 107.639C100.508 107.365 100.428 107.045 100.428 106.678C100.428 106.311 100.508 105.982 100.668 105.693C100.832 105.404 101.045 105.16 101.307 104.961C101.568 104.762 101.865 104.611 102.197 104.51C102.529 104.404 102.863 104.352 103.199 104.352C103.57 104.352 103.928 104.414 104.271 104.539C104.615 104.66 104.92 104.832 105.186 105.055C105.451 105.277 105.664 105.547 105.824 105.863C105.984 106.18 106.068 106.533 106.076 106.924H104.963C104.932 106.678 104.871 106.455 104.781 106.256C104.691 106.053 104.572 105.879 104.424 105.734C104.275 105.59 104.098 105.479 103.891 105.4C103.688 105.318 103.457 105.277 103.199 105.277C102.992 105.277 102.789 105.307 102.59 105.365C102.395 105.424 102.221 105.512 102.068 105.629C101.912 105.746 101.787 105.891 101.693 106.062C101.604 106.234 101.559 106.434 101.559 106.66C101.562 106.906 101.625 107.115 101.746 107.287C101.867 107.455 102.021 107.598 102.209 107.715C102.393 107.832 102.592 107.93 102.807 108.008C103.025 108.086 103.23 108.154 103.422 108.213C103.738 108.311 104.055 108.43 104.371 108.57C104.688 108.707 104.977 108.883 105.238 109.098C105.496 109.297 105.703 109.541 105.859 109.83C106.02 110.119 106.1 110.453 106.1 110.832C106.1 111.215 106.014 111.549 105.842 111.834C105.674 112.119 105.455 112.355 105.186 112.543C104.916 112.734 104.611 112.879 104.271 112.977C103.932 113.07 103.592 113.117 103.252 113.117C102.846 113.117 102.445 113.049 102.051 112.912C101.66 112.775 101.32 112.578 101.031 112.32C100.773 112.098 100.568 111.838 100.416 111.541C100.268 111.24 100.188 110.906 100.176 110.539H101.283C101.318 110.805 101.391 111.041 101.5 111.248C101.609 111.451 101.75 111.623 101.922 111.764C102.094 111.908 102.291 112.018 102.514 112.092C102.74 112.162 102.986 112.197 103.252 112.197C103.463 112.197 103.67 112.172 103.873 112.121C104.08 112.066 104.264 111.982 104.424 111.869C104.584 111.76 104.715 111.621 104.816 111.453C104.918 111.281 104.969 111.078 104.969 110.844ZM112.404 109.057H108.842V112.08H112.996V113H107.758V104.469H112.943V105.395H108.842V108.137H112.404V109.057ZM120.273 104.469L120.285 110.246C120.285 110.645 120.215 111.018 120.074 111.365C119.934 111.713 119.74 112.016 119.494 112.273C119.248 112.535 118.955 112.742 118.615 112.895C118.275 113.043 117.902 113.117 117.496 113.117C117.082 113.117 116.705 113.043 116.365 112.895C116.025 112.746 115.734 112.541 115.492 112.279C115.25 112.021 115.061 111.719 114.924 111.371C114.787 111.02 114.717 110.645 114.713 110.246L114.725 104.469H115.756L115.779 110.246C115.783 110.5 115.822 110.744 115.896 110.979C115.975 111.213 116.086 111.42 116.23 111.6C116.371 111.779 116.547 111.924 116.758 112.033C116.973 112.143 117.219 112.197 117.496 112.197C117.773 112.197 118.018 112.145 118.229 112.039C118.439 111.93 118.617 111.783 118.762 111.6C118.902 111.42 119.01 111.213 119.084 110.979C119.158 110.744 119.199 110.5 119.207 110.246L119.225 104.469H120.273ZM127.469 113H126.367L123.057 106.625L123.039 113H121.943V104.469H123.045L126.355 110.832L126.373 104.469H127.469V113ZM134.072 109.713H129.59V108.822H134.072V109.713ZM142.088 109.227C142.084 109.531 142.057 109.84 142.006 110.152C141.959 110.461 141.885 110.76 141.783 111.049C141.682 111.338 141.551 111.607 141.391 111.857C141.234 112.107 141.047 112.326 140.828 112.514C140.609 112.701 140.357 112.85 140.072 112.959C139.791 113.064 139.475 113.117 139.123 113.117C138.771 113.117 138.453 113.064 138.168 112.959C137.887 112.85 137.637 112.701 137.418 112.514C137.199 112.326 137.01 112.107 136.85 111.857C136.689 111.604 136.559 111.332 136.457 111.043C136.352 110.754 136.273 110.455 136.223 110.146C136.172 109.838 136.145 109.531 136.141 109.227V108.254C136.145 107.949 136.17 107.643 136.217 107.334C136.268 107.021 136.346 106.721 136.451 106.432C136.553 106.143 136.682 105.873 136.838 105.623C136.998 105.369 137.188 105.146 137.406 104.955C137.625 104.768 137.875 104.621 138.156 104.516C138.441 104.406 138.76 104.352 139.111 104.352C139.463 104.352 139.781 104.406 140.066 104.516C140.352 104.621 140.604 104.768 140.822 104.955C141.041 105.143 141.229 105.363 141.385 105.617C141.545 105.867 141.678 106.137 141.783 106.426C141.885 106.715 141.959 107.016 142.006 107.328C142.057 107.641 142.084 107.949 142.088 108.254V109.227ZM141.016 108.242C141.012 108.039 140.998 107.828 140.975 107.609C140.951 107.387 140.912 107.166 140.857 106.947C140.799 106.732 140.723 106.527 140.629 106.332C140.535 106.133 140.418 105.957 140.277 105.805C140.137 105.656 139.971 105.539 139.779 105.453C139.588 105.363 139.365 105.318 139.111 105.318C138.861 105.318 138.641 105.363 138.449 105.453C138.258 105.543 138.092 105.662 137.951 105.811C137.811 105.963 137.693 106.139 137.6 106.338C137.506 106.533 137.432 106.738 137.377 106.953C137.318 107.172 137.275 107.393 137.248 107.615C137.225 107.834 137.211 108.043 137.207 108.242V109.227C137.211 109.426 137.225 109.637 137.248 109.859C137.275 110.082 137.318 110.301 137.377 110.516C137.436 110.734 137.512 110.943 137.605 111.143C137.699 111.342 137.816 111.516 137.957 111.664C138.098 111.816 138.264 111.938 138.455 112.027C138.646 112.117 138.869 112.162 139.123 112.162C139.377 112.162 139.6 112.117 139.791 112.027C139.986 111.938 140.154 111.816 140.295 111.664C140.432 111.516 140.545 111.344 140.635 111.148C140.729 110.949 140.805 110.74 140.863 110.521C140.918 110.307 140.955 110.088 140.975 109.865C140.998 109.643 141.012 109.43 141.016 109.227V108.242ZM146.26 108.752L148.205 104.469H149.436L146.781 109.818L146.764 113H145.756L145.738 109.818L143.084 104.469H144.32L146.26 108.752ZM155.646 109.057H152.084V112.08H156.238V113H151V104.469H156.186V105.395H152.084V108.137H155.646V109.057ZM158.049 113V104.469H160.023C160.355 104.473 160.668 104.508 160.961 104.574C161.258 104.637 161.531 104.727 161.781 104.844C162.129 105.004 162.436 105.215 162.701 105.477C162.971 105.734 163.186 106.033 163.346 106.373C163.49 106.662 163.6 106.979 163.674 107.322C163.752 107.666 163.793 108.033 163.797 108.424V109.051C163.797 109.426 163.76 109.781 163.686 110.117C163.615 110.453 163.512 110.762 163.375 111.043C163.234 111.336 163.057 111.602 162.842 111.84C162.627 112.078 162.387 112.281 162.121 112.449C161.84 112.625 161.521 112.76 161.166 112.854C160.814 112.947 160.434 112.996 160.023 113H158.049ZM159.15 105.359V112.115H160.023C160.336 112.111 160.619 112.072 160.873 111.998C161.131 111.924 161.359 111.818 161.559 111.682C161.77 111.541 161.951 111.369 162.104 111.166C162.26 110.959 162.383 110.729 162.473 110.475C162.551 110.268 162.609 110.045 162.648 109.807C162.688 109.564 162.709 109.312 162.713 109.051V108.412C162.709 108.146 162.686 107.893 162.643 107.65C162.604 107.404 162.543 107.176 162.461 106.965C162.355 106.691 162.213 106.445 162.033 106.227C161.857 106.004 161.641 105.824 161.383 105.688C161.199 105.586 160.994 105.508 160.768 105.453C160.541 105.395 160.293 105.363 160.023 105.359H159.15ZM165.367 104.469H170.523V105.412H168.479V112.062H170.523V113H165.367V112.062H167.365V105.412H165.367V104.469ZM175.398 109.52H173.693V113H172.615V104.469H175.117C175.516 104.477 175.891 104.533 176.242 104.639C176.594 104.744 176.902 104.902 177.168 105.113C177.43 105.324 177.635 105.59 177.783 105.91C177.936 106.227 178.012 106.6 178.012 107.029C178.012 107.307 177.971 107.561 177.889 107.791C177.811 108.021 177.701 108.23 177.561 108.418C177.42 108.605 177.252 108.771 177.057 108.916C176.861 109.061 176.646 109.184 176.412 109.285L178.223 112.93L178.217 113H177.074L175.398 109.52ZM173.693 108.629H175.146C175.389 108.625 175.617 108.588 175.832 108.518C176.047 108.443 176.236 108.338 176.4 108.201C176.561 108.064 176.688 107.898 176.781 107.703C176.875 107.504 176.922 107.275 176.922 107.018C176.922 106.744 176.877 106.506 176.787 106.303C176.697 106.096 176.572 105.922 176.412 105.781C176.252 105.645 176.061 105.541 175.838 105.471C175.619 105.4 175.379 105.363 175.117 105.359H173.693V108.629ZM183.854 110.791H181.006L180.32 113H179.236L181.99 104.469H182.898L185.605 113H184.527L183.854 110.791ZM181.299 109.848H183.566L182.441 106.145L181.299 109.848ZM192.332 113H191.23L187.92 106.625L187.902 113H186.807V104.469H187.908L191.219 110.832L191.236 104.469H192.332V113Z" fill="white"/>
<path d="M323.5 26.5L332.593 43H314.407L323.5 26.5Z" fill="white"/>
<rect x="377" y="27" width="17" height="17" fill="white"/>
</svg>
