<svg width="407" height="129" viewBox="0 0 407 129" fill="none" xmlns="http://www.w3.org/2000/svg">
<mask id="path-1-inside-1_12_6" fill="white">
<path fill-rule="evenodd" clip-rule="evenodd" d="M406.866 49.2936H407V124C407 126.761 404.761 129 402 129H4.99999C2.23857 129 0 126.761 0 124V54.2936C0 51.5321 2.23858 49.2936 5 49.2936H227.285L314.025 0.759128L314.218 0.867256C315.02 0.319994 315.989 0 317.033 0H402C404.761 0 407 2.23858 407 5V48.1376C407 48.5355 406.954 48.9225 406.866 49.2936Z"/>
</mask>
<path d="M406.866 49.2936L405.893 49.0632L405.601 50.2936H406.866V49.2936ZM407 49.2936H408V48.2936H407V49.2936ZM227.285 49.2936V50.2936H227.546L227.773 50.1662L227.285 49.2936ZM314.025 0.759128L314.513 -0.113542L314.025 -0.386776L313.537 -0.113549L314.025 0.759128ZM314.218 0.867256L313.73 1.73993L314.27 2.04236L314.782 1.69322L314.218 0.867256ZM406.866 50.2936H407V48.2936H406.866V50.2936ZM406 49.2936V124H408V49.2936H406ZM406 124C406 126.209 404.209 128 402 128V130C405.314 130 408 127.314 408 124H406ZM402 128H4.99999V130H402V128ZM4.99999 128C2.79085 128 1 126.209 1 124H-1C-1 127.314 1.68628 130 4.99999 130V128ZM1 124V54.2936H-1V124H1ZM1 54.2936C1 52.0844 2.79086 50.2936 5 50.2936V48.2936C1.68629 48.2936 -1 50.9799 -1 54.2936H1ZM5 50.2936H227.285V48.2936H5V50.2936ZM227.773 50.1662L314.513 1.63181L313.537 -0.113549L226.797 48.4209L227.773 50.1662ZM313.537 1.6318L313.73 1.73993L314.707 -0.00541391L314.513 -0.113542L313.537 1.6318ZM314.782 1.69322C315.423 1.25574 316.197 1 317.033 1V-1C315.782 -1 314.617 -0.615749 313.654 0.0412906L314.782 1.69322ZM317.033 1H402V-1H317.033V1ZM402 1C404.209 1 406 2.79086 406 5H408C408 1.68629 405.314 -1 402 -1V1ZM406 5V48.1376H408V5H406ZM406 48.1376C406 48.4574 405.963 48.7672 405.893 49.0632L407.839 49.5239C407.944 49.0779 408 48.6136 408 48.1376H406Z" fill="white" mask="url(#path-1-inside-1_12_6)"/>
</svg>
